<svg xmlns="http://www.w3.org/2000/svg" xmlns:xlink="http://www.w3.org/1999/xlink" version="1.1" x="0px" y="0px" viewBox="0 0 269.067 311.49875000000003" style="enable-background:new 0 0 269.067 249.199;" xml:space="preserve"><g><path d="M253.762,145.363c0-32.365-26.329-58.695-58.694-58.695v-0.244h-93.414h-0.001c-2.544,0-5.045,0.183-7.502,0.502   c2.982,11.191,4.426,25.441,4.454,43.598c0,6.424-0.195,13.373-0.579,20.66c-0.389,7.324-6.349,13.084-13.637,13.258v13.092   c0,0.301-0.033,0.595-0.057,0.891h184.735v-7.334h-15.306V145.363z M215.52,171.09v-44.916h-31.5v44.916h-43.649v-25.727   c0-30.207,24.488-54.695,54.696-54.695s54.694,24.488,54.694,54.695v25.727H215.52z"/><path d="M48.621,235.792v1.044c0,6.83,5.537,12.363,12.363,12.363c6.828,0,12.365-5.533,12.365-12.363v-3.393   C67.979,234.07,55.096,235.527,48.621,235.792z"/><path d="M17.372,105.229c0.528-4.188,1.176-7.767,1.886-10.795v25.234H73.35V94.443c0.714,3.025,1.357,6.602,1.882,10.786   l15.572-4.325C89.14,89.086,86.44,81.006,83.22,75.17c-2.711-4.867-5.947-8.135-9.184-10.055c-3.201-1.918-6.23-2.391-8.062-2.385   c-0.118-0.004-0.233-0.018-0.354-0.018h-5.442v-5.586l-11.75,3.75v1.836h-4.25v-1.836l-11.75-3.75v5.586h-5.442   c-0.1,0-0.196,0.012-0.294,0.016c-0.004,0-0.008,0-0.012,0c-1.825-0.016-4.883,0.451-8.109,2.389   c-4.903,2.916-9.6,8.695-12.928,18.688C4.095,88.44,2.78,94.052,1.809,100.905L17.372,105.229z M26.881,99.09V88.771l6.826,2.225   l6.828-2.226V99.09H26.881z M65.73,99.09H52.076V88.771l6.826,2.225l6.828-2.226V99.09z M66.59,83.607v1.412v2.057l-7.688,2.506   l-7.687-2.506V85.02v-1.412H66.59z M26.02,85.02v-1.412h15.375v1.412v2.057l-7.688,2.506l-7.688-2.506V85.02z"/><path d="M19.258,233.442v3.394c0,6.83,5.537,12.363,12.363,12.363c6.828,0,12.365-5.533,12.365-12.363v-1.043   C37.511,235.526,24.628,234.07,19.258,233.442z"/><path d="M78.387,156.09c1.349,1.352,3.177,2.234,5.233,2.344c0.145,0.008,0.287,0.012,0.43,0.012c4.226,0,7.758-3.313,7.983-7.578   c0.39-7.408,0.569-14.164,0.569-20.334c-0.016-9.984-0.479-18.429-1.292-25.618l-15.632,4.341   c0.58,5.956,0.927,12.996,0.924,21.277c0,5.6-0.159,11.766-0.502,18.543c-0.787-0.568-1.729-0.934-2.751-1.02v-9.221v-9H19.258v9   v9.221c-1.023,0.086-1.964,0.451-2.751,1.02c-0.348-6.775-0.506-12.945-0.506-18.541c-0.014-8.283,0.336-15.324,0.92-21.281   l-15.625-4.339c-0.82,7.189-1.29,15.627-1.296,25.62c0.003,6.17,0.183,12.924,0.577,20.332c0.225,4.266,3.755,7.576,7.977,7.576   c0.144,0,0.289-0.004,0.434-0.012c2.057-0.107,3.885-0.992,5.233-2.344v21.445c0,2.881,2.216,5.24,5.037,5.476v46.407   c2.147,0.251,5.819,0.673,9.837,1.096c5.322,0.563,11.285,1.12,14.892,1.278v-66.924h4.635v66.923   c3.605-0.157,9.567-0.714,14.89-1.276c4.021-0.425,7.692-0.846,9.839-1.098V183.01c2.819-0.236,5.037-2.596,5.037-5.476V156.09z"/><path d="M49.974,56.711c10.681-1.753,18.83-11.02,18.83-22.197c0-1.526-0.154-3.016-0.443-4.457   c-3.629-1.048-16.766-4.732-22.057-4.732s-18.428,3.685-22.057,4.732c-0.289,1.441-0.443,2.931-0.443,4.457   c0,11.178,8.149,20.444,18.83,22.197c1.194,0.196,2.42,0.303,3.67,0.303S48.779,56.907,49.974,56.711z"/><path d="M46.304,20.75c6.167,0,21.584,6.25,21.584,6.25s0-9.212,0-15.551c0-0.707,0-1.381,0-2c0-6.168-21.584-6.938-21.584-6.938   S24.72,3.281,24.72,9.449c0,0.619,0,1.293,0,2c0,6.339,0,15.551,0,15.551S40.137,20.75,46.304,20.75z M46.303,16.291   c-1.91,0-3.532-1.195-4.186-2.875c-2.896-1.162-5.814-3.541-5.814-3.541s3.115,0.502,5.64,0.853   c0.479-1.969,2.244-3.437,4.36-3.437c2.118,0,3.882,1.469,4.36,3.437c2.525-0.352,5.64-0.853,5.64-0.853s-2.919,2.379-5.813,3.541   C49.837,15.096,48.214,16.291,46.303,16.291z"/><rect x="40.554" y="121.502" width="11.5" height="6.166"/><path d="M109.14,29.191c2.404,0,4.581-0.961,6.178-2.515c2.618,2.186,5.985,3.503,9.662,3.503c3.558,0,6.82-1.238,9.4-3.298   c2.218,2.041,5.168,3.298,8.42,3.298c6.879,0,12.457-5.576,12.457-12.455c0-6.877-5.578-12.455-12.457-12.455   c-0.859,0-1.697,0.087-2.507,0.253c1.155,2.134,1.812,4.576,1.812,7.173c0,4.278-1.788,8.132-4.648,10.878   c1.646-2.418,2.611-5.337,2.611-8.483c0-8.334-6.754-15.09-15.088-15.09c-4.057,0-7.731,1.609-10.443,4.213   c-2.045,1.963-3.529,4.494-4.215,7.342c-0.388-0.052-0.779-0.088-1.182-0.088c-4.895,0-8.863,3.969-8.863,8.863   C100.276,25.225,104.245,29.191,109.14,29.191z"/><path d="M217.921,57.388c1.881,2.175,4.652,3.556,7.752,3.556c5.664,0,10.256-4.592,10.256-10.256   c0-5.664-4.592-10.256-10.256-10.256c-0.068,0-0.135,0.009-0.203,0.01c0.067,0.645,0.105,1.299,0.105,1.961   C225.575,48.569,222.553,54.017,217.921,57.388z"/><path d="M179.528,61.533c1.908,0,3.641-0.739,4.941-1.939c1.686,0.856,3.587,1.349,5.607,1.349c2.543,0,4.906-0.768,6.875-2.078   c2.549,1.32,5.438,2.078,8.506,2.078c0.267,0,0.525-0.028,0.789-0.04c9.869-0.416,17.75-8.527,17.75-18.501   c0-9.97-7.881-18.079-17.75-18.495c-0.264-0.012-0.522-0.04-0.789-0.04c-7.268,0-13.539,4.191-16.578,10.278   c4.072,0.155,7.645,2.257,9.796,5.416c-2.233-2.144-5.259-3.468-8.599-3.468c-5.863,0-10.765,4.066-12.07,9.528   c0.49-0.104,0.999-0.161,1.521-0.161c4.029,0,7.297,3.268,7.297,7.297c0,0.25-0.013,0.496-0.037,0.739   c-0.371-3.682-3.48-6.556-7.26-6.556s-6.889,2.874-7.26,6.556c-0.024,0.243-0.037,0.489-0.037,0.739   C172.231,58.266,175.499,61.533,179.528,61.533z"/></g><</svg>