<svg xmlns="http://www.w3.org/2000/svg" data-name="Layer 1" viewBox="0 0 96 120" x="0px" y="0px"><defs><style>.cls-1{fill:#ffffff;}</style></defs><title>Media 1</title><path class="cls-1" d="M61.63,32.86H34.37a3.31,3.31,0,0,0-3.3,3.3V66.32a3.31,3.31,0,0,0,3.3,3.3H61.63a3.31,3.31,0,0,0,3.3-3.3V36.16A3.31,3.31,0,0,0,61.63,32.86Zm.06,33.46a.06.06,0,0,1-.06.06l-27.31-.06.06-30.22,27.31.06Z"/><rect class="cls-1" x="38.62" y="40.6" width="18.77" height="3.24"/><rect class="cls-1" x="38.62" y="46.86" width="18.77" height="3.24"/><rect class="cls-1" x="38.62" y="53.11" width="18.77" height="3.24"/><rect class="cls-1" x="38.62" y="59.37" width="11.26" height="3.24"/><path class="cls-1" d="M64.1,27.17H57.28a9,9,0,0,0-8.63-6.48H47.35a9,9,0,0,0-8.63,6.48H31.9a7.61,7.61,0,0,0-7.6,7.6V67.7a7.61,7.61,0,0,0,7.6,7.6H64.1a7.61,7.61,0,0,0,7.6-7.6V34.77A7.61,7.61,0,0,0,64.1,27.17ZM47.35,23.94h1.31a5.73,5.73,0,0,1,5.14,3.23H42.2A5.74,5.74,0,0,1,47.35,23.94ZM68.46,67.7a4.36,4.36,0,0,1-4.36,4.36H31.9a4.36,4.36,0,0,1-4.36-4.36V34.77a4.36,4.36,0,0,1,4.36-4.36H64.1a4.36,4.36,0,0,1,4.36,4.36Z"/></svg>

