<svg xmlns:dc="http://purl.org/dc/elements/1.1/" xmlns:cc="http://creativecommons.org/ns#" xmlns:rdf="http://www.w3.org/1999/02/22-rdf-syntax-ns#" xmlns:svg="http://www.w3.org/2000/svg" xmlns="http://www.w3.org/2000/svg" xmlns:sodipodi="http://sodipodi.sourceforge.net/DTD/sodipodi-0.dtd" xmlns:inkscape="http://www.inkscape.org/namespaces/inkscape" version="1.1" x="0px" y="0px" viewBox="0 0 100 125"><g transform="translate(0,-952.36218)"><path style="text-indent:0;text-transform:none;direction:ltr;block-progression:tb;baseline-shift:baseline;color:#ffffff;enable-background:accumulate;" d="m 50,964.36216 c -20.95121,0 -38,17.04878 -38,38.00004 0,20.9512 17.0488,38 38,38 20.9512,0 38,-17.0488 38,-38 0,-20.95126 -17.0488,-38.00004 -38,-38.00004 z m 0,6 c 17.70852,0 32,14.29146 32,32.00004 0,17.7085 -14.29148,32 -32,32 -17.70852,0 -32,-14.2915 -32,-32 0,-17.70858 14.29147,-32.00004 32,-32.00004 z m 0,5 c -1.6568,0 -3,1.3432 -3,3 l 0,24.00004 c 0,0.8284 0.3321,1.5821 0.875,2.125 l 15.5625,15.5625 c 1.17154,1.1715 3.07839,1.1716 4.25,0 1.17153,-1.1716 1.17154,-3.0785 0,-4.25 L 53,1001.1122 53,978.36216 c 0,-1.6568 -1.3431,-3 -3,-3 z" fill="#ffffff" fill-opacity="1" stroke="none" marker="none" visibility="visible" display="inline" overflow="visible"/></g></svg>