<svg xmlns="http://www.w3.org/2000/svg" data-name="Layer 1" viewBox="0 0 1024 1280" x="0px" y="0px"><title>icon-01</title><path fill="#000000" d="M662.693 494.318c47.619-47.606 73.845-110.902 73.845-178.229s-26.226-130.622-73.845-178.229c-47.616-47.604-110.926-73.82-178.265-73.82s-130.649 26.217-178.266 73.82c-47.619 47.606-73.844 110.902-73.844 178.229s26.225 130.623 73.844 178.229c14.71 14.705 30.92 27.363 48.281 37.844-56.014 19.526-107.845 50.567-152.237 91.857-79.971 74.382-128.597 175.109-136.921 283.624-1.267 16.521 11.098 30.939 27.618 32.207 0.781 0.06 1.556 0.089 2.327 0.089 15.526 0 28.672-11.968 29.88-27.706 7.168-93.44 49.061-180.194 117.961-244.279 69.255-64.415 159.525-99.891 254.18-99.891 2.084 0 4.119-0.214 6.083-0.618 60.217-4.434 116.227-30.005 159.359-73.127zM292.318 316.09c0-105.896 86.18-192.049 192.11-192.049s192.11 86.153 192.11 192.049-86.18 192.049-192.11 192.049-192.11-86.153-192.11-192.049zM744.478 526.724c-119.69 0-216.719 97.002-216.719 216.659s97.028 216.659 216.719 216.659 216.719-97.002 216.719-216.659-97.029-216.659-216.719-216.659z m110.823 327.428c-29.601 29.593-68.959 45.89-110.823 45.89s-81.222-16.297-110.823-45.89c-29.596-29.588-45.896-68.927-45.896-110.769s16.3-81.18 45.896-110.769c29.601-29.593 68.959-45.89 110.823-45.89s81.222 16.297 110.823 45.89c29.596 29.588 45.896 68.927 45.896 110.769s-16.3 81.18-45.896 110.769zM860.824 659.989c-11.638-11.629-30.686-11.632-42.328-0.008L715.128 763.19l-44.625-44.554c-11.653-11.634-30.716-11.63-42.364 0.009-11.668 11.66-11.664 30.735 0.009 42.39l64.497 64.395c0.398 0.449 0.807 0.891 1.236 1.32a29.694 29.694 0 0 0 14.154 7.899l0.024 0.005c0.422 0.1 0.845 0.194 1.27 0.276 9.487 1.862 19.718-0.857 27.029-8.162a29.915 29.915 0 0 0 1.674-1.83l122.784-122.595c11.663-11.645 11.666-30.705 0.008-42.354z"/></svg>
